<?xml version="1.0" encoding="UTF-8" standalone="no"?>
<svg width="18px" height="15px" viewBox="0 0 18 15" version="1.1" xmlns="http://www.w3.org/2000/svg" xmlns:xlink="http://www.w3.org/1999/xlink">
    <!-- Generator: sketchtool 39.1 (31720) - http://www.bohemiancoding.com/sketch -->
    <title>9BDF04A7-ECC5-4EBE-AC4B-C1C394CFF85F</title>
    <desc>Created with sketchtool.</desc>
    <defs></defs>
    <g id="Orders" stroke="none" stroke-width="1" fill="none" fill-rule="evenodd">
        <g id="inbox-indicator" transform="translate(-209.000000, -18.000000)" fill="#47789A">
            <path d="M226.021931,25.2366857 L223.693762,23.3016286 L223.693762,18.9636948 C223.693762,18.8643565 223.661954,18.782798 223.598175,18.7190192 C223.534396,18.6554036 223.452838,18.6235958 223.3535,18.6235958 L221.312579,18.6235958 C221.213241,18.6235958 221.131683,18.6554036 221.067904,18.7190192 C221.004288,18.782798 220.972317,18.8643565 220.972317,18.9636948 L220.972317,21.0370751 L218.378431,18.8682713 C218.151535,18.6841122 217.882066,18.5916248 217.570512,18.5916248 C217.258306,18.5916248 216.989326,18.6841122 216.762593,18.8682713 L209.117788,25.2366857 C209.046996,25.2934504 209.008174,25.3692998 209.00116,25.4648864 C208.994146,25.560473 209.01894,25.6439889 209.075704,25.715271 L209.734534,26.501495 C209.791299,26.5652738 209.865843,26.6047481 209.957515,26.6187762 C210.042988,26.6257902 210.128298,26.6009964 210.213119,26.5442317 L217.56986,20.409564 L224.927416,26.5442317 C224.984017,26.5939824 225.058562,26.6187762 225.150397,26.6187762 L225.182857,26.6187762 C225.274529,26.6047481 225.348584,26.5652738 225.405838,26.501495 L226.06532,25.7146186 C226.121432,25.6439889 226.146878,25.560473 226.139212,25.4648864 C226.132198,25.3692998 226.092724,25.2934504 226.021931,25.2366857 Z M217.56986,21.3448769 L211.456723,26.3850295 C211.456723,26.3920435 211.455581,26.4028092 211.451667,26.4168373 C211.448567,26.4308654 211.44661,26.4409786 211.44661,26.4486451 L211.44661,31.5517609 C211.44661,31.73592 211.513488,31.8952853 211.648549,32.0296937 C211.782957,32.1647546 211.942323,32.232285 212.126482,32.232285 L216.209464,32.232285 L216.209464,28.1493031 L218.93156,28.1493031 L218.93156,32.232285 L223.01389,32.232285 C223.198049,32.232285 223.357414,32.1647546 223.491823,32.0303462 C223.626884,31.8959378 223.694414,31.73592 223.694414,31.5517609 L223.694414,26.4486451 C223.694414,26.4199365 223.690499,26.3988944 223.683648,26.3850295 L217.56986,21.3448769 Z" id="icon-menu"></path>
        </g>
    </g>
</svg>