<?xml version="1.0" encoding="UTF-8" standalone="no"?>
<svg width="13px" height="17px" viewBox="0 0 13 17" version="1.1" xmlns="http://www.w3.org/2000/svg" xmlns:xlink="http://www.w3.org/1999/xlink">
    <!-- Generator: sketchtool 39.1 (31720) - http://www.bohemiancoding.com/sketch -->
    <title>55669F5D-2392-4049-9F63-AB7287E2A794</title>
    <desc>Created with sketchtool.</desc>
    <defs></defs>
    <g id="Orders" stroke="none" stroke-width="1" fill="none" fill-rule="evenodd">
        <g id="inbox-indicator" transform="translate(-1247.000000, -19.000000)" fill="#4D87A6">
            <path d="M1259.26803,31.544257 L1257.56006,29.0071912 L1257.56006,25.842124 C1257.56006,23.7076503 1256.05659,21.928379 1254.06209,21.5275486 L1254.06209,20.5529331 C1254.06192,20.0763496 1253.67991,19.6901413 1253.20878,19.6901413 C1252.73748,19.6901413 1252.35547,20.0763496 1252.35547,20.5529331 L1252.35547,21.5275486 C1250.36097,21.9285552 1248.85755,23.7077824 1248.85755,25.8423001 L1248.85755,29.0073673 L1247.14958,31.544257 C1246.96973,31.8114626 1246.95065,32.1572399 1247.10023,32.4429874 C1247.24959,32.7287789 1247.54313,32.9075032 1247.86285,32.9075032 L1258.55476,32.9075032 C1258.87443,32.9075032 1259.16797,32.7287789 1259.31733,32.4429874 C1259.46691,32.1572399 1259.44784,31.8114626 1259.26803,31.544257 Z M1251.31129,33.9426771 C1251.31129,33.9469933 1251.31111,33.9511333 1251.31111,33.9554054 C1251.31111,35.015199 1252.16068,35.8743793 1253.20878,35.8743793 C1254.25693,35.8743793 1255.10662,35.015199 1255.10662,33.9554054 C1255.10662,33.9511333 1255.10632,33.9469933 1255.10632,33.9426771 L1251.31129,33.9426771 Z" id="icon-notifications"></path>
        </g>
    </g>
</svg>